<?xml version="1.0" encoding="UTF-8"?>
<svg xmlns="http://www.w3.org/2000/svg" xmlns:xlink="http://www.w3.org/1999/xlink" width="100pt" height="100pt" viewBox="0 0 100 100" version="1.1">
<g id="surface1">
<path style=" stroke:none;fill-rule:evenodd;fill:rgb(22.745098%,22.745098%,22.745098%);fill-opacity:1;" d="M 3.632812 70.535156 C 3.632812 72.980469 4.269531 74.15625 5.089844 74.941406 C 6.28125 76.066406 7.972656 76.132812 8.542969 76.132812 C 9.53125 76.132812 10.789062 75.964844 11.996094 74.894531 C 13.335938 73.703125 13.539062 71.691406 13.539062 69.882812 L 13.539062 68.089844 C 13.539062 65.472656 13.539062 65.003906 13.570312 64.46875 C 13.605469 63.882812 13.738281 63.613281 14.191406 63.511719 C 14.394531 63.480469 14.492188 63.460938 14.609375 63.460938 C 14.675781 63.460938 14.746094 63.429688 14.746094 63.363281 C 14.746094 63.261719 14.660156 63.226562 14.476562 63.226562 C 13.972656 63.226562 13.1875 63.277344 13.070312 63.277344 C 12.96875 63.277344 12.046875 63.226562 11.292969 63.226562 C 11.109375 63.226562 11.023438 63.261719 11.023438 63.363281 C 11.023438 63.429688 11.089844 63.460938 11.15625 63.460938 C 11.308594 63.460938 11.59375 63.480469 11.726562 63.511719 C 12.28125 63.628906 12.414062 63.898438 12.449219 64.46875 C 12.480469 65.003906 12.480469 65.472656 12.480469 68.089844 L 12.480469 70.183594 C 12.480469 71.910156 12.28125 73.335938 11.511719 74.289062 C 10.90625 75.011719 9.902344 75.496094 8.878906 75.496094 C 7.921875 75.496094 7.167969 75.34375 6.347656 74.574219 C 5.628906 73.886719 5.089844 72.847656 5.089844 70.433594 L 5.089844 68.089844 C 5.089844 65.472656 5.089844 65.003906 5.125 64.46875 C 5.15625 63.882812 5.292969 63.578125 5.746094 63.511719 C 5.945312 63.480469 6.046875 63.460938 6.164062 63.460938 C 6.230469 63.460938 6.296875 63.429688 6.296875 63.363281 C 6.296875 63.261719 6.214844 63.226562 6.03125 63.226562 C 5.527344 63.226562 4.519531 63.277344 4.371094 63.277344 C 4.21875 63.277344 3.195312 63.226562 2.441406 63.226562 C 2.257812 63.226562 2.175781 63.261719 2.175781 63.363281 C 2.175781 63.429688 2.242188 63.460938 2.308594 63.460938 C 2.460938 63.460938 2.746094 63.480469 2.878906 63.511719 C 3.429688 63.628906 3.566406 63.898438 3.597656 64.46875 C 3.632812 65.003906 3.632812 65.472656 3.632812 68.089844 Z M 18.757812 65.589844 C 19.292969 66.195312 21.183594 68.304688 23.125 70.402344 C 24.898438 72.3125 27.308594 74.777344 27.492188 74.941406 C 28.382812 75.832031 28.585938 76.015625 28.71875 76.015625 C 28.835938 76.015625 28.871094 75.933594 28.871094 74.824219 L 28.90625 65.003906 C 28.90625 64 28.972656 63.628906 29.523438 63.511719 C 29.726562 63.460938 29.84375 63.460938 29.925781 63.460938 C 30.042969 63.460938 30.109375 63.410156 30.109375 63.34375 C 30.109375 63.246094 29.992188 63.226562 29.808594 63.226562 C 29.121094 63.226562 28.570312 63.277344 28.382812 63.277344 C 28.199219 63.277344 27.394531 63.226562 26.640625 63.226562 C 26.441406 63.226562 26.304688 63.246094 26.304688 63.34375 C 26.304688 63.410156 26.324219 63.460938 26.441406 63.460938 C 26.574219 63.460938 26.957031 63.480469 27.257812 63.546875 C 27.777344 63.679688 27.894531 64.050781 27.914062 65.136719 L 28.097656 73.652344 C 27.5625 73.101562 25.738281 71.054688 24.078125 69.277344 C 21.5 66.511719 19.007812 63.8125 18.757812 63.53125 C 18.589844 63.363281 18.300781 62.992188 18.167969 62.992188 C 18.03125 62.992188 17.980469 63.175781 17.980469 63.832031 L 17.964844 73.433594 C 17.964844 74.960938 17.882812 75.445312 17.460938 75.5625 C 17.210938 75.648438 16.910156 75.664062 16.773438 75.664062 C 16.691406 75.664062 16.640625 75.699219 16.640625 75.765625 C 16.640625 75.882812 16.742188 75.898438 16.910156 75.898438 C 17.664062 75.898438 18.367188 75.847656 18.519531 75.847656 C 18.671875 75.847656 19.34375 75.898438 20.296875 75.898438 C 20.496094 75.898438 20.597656 75.863281 20.597656 75.765625 C 20.597656 75.699219 20.546875 75.664062 20.460938 75.664062 C 20.3125 75.664062 19.945312 75.648438 19.628906 75.5625 C 19.175781 75.429688 19.007812 74.992188 18.972656 73.621094 Z M 35.796875 68.089844 C 35.796875 65.472656 35.796875 65.003906 35.828125 64.46875 C 35.863281 63.882812 35.996094 63.597656 36.449219 63.511719 C 36.648438 63.480469 36.75 63.460938 36.867188 63.460938 C 36.933594 63.460938 37.003906 63.429688 37.003906 63.363281 C 37.003906 63.261719 36.917969 63.226562 36.734375 63.226562 C 36.230469 63.226562 35.175781 63.277344 35.089844 63.277344 C 35.007812 63.277344 33.953125 63.226562 33.398438 63.226562 C 33.214844 63.226562 33.128906 63.261719 33.128906 63.363281 C 33.128906 63.429688 33.199219 63.460938 33.265625 63.460938 C 33.382812 63.460938 33.601562 63.480469 33.785156 63.53125 C 34.152344 63.613281 34.320312 63.898438 34.355469 64.46875 C 34.386719 65.003906 34.386719 65.472656 34.386719 68.089844 L 34.386719 71.039062 C 34.386719 72.648438 34.386719 73.972656 34.304688 74.675781 C 34.238281 75.160156 34.152344 75.53125 33.816406 75.597656 C 33.667969 75.628906 33.464844 75.664062 33.316406 75.664062 C 33.214844 75.664062 33.179688 75.714844 33.179688 75.765625 C 33.179688 75.863281 33.265625 75.898438 33.449219 75.898438 C 33.953125 75.898438 35.007812 75.847656 35.089844 75.847656 C 35.175781 75.847656 36.230469 75.898438 37.152344 75.898438 C 37.335938 75.898438 37.421875 75.847656 37.421875 75.765625 C 37.421875 75.714844 37.386719 75.664062 37.289062 75.664062 C 37.136719 75.664062 36.769531 75.628906 36.53125 75.597656 C 36.03125 75.53125 35.929688 75.160156 35.878906 74.675781 C 35.796875 73.972656 35.796875 72.648438 35.796875 71.039062 Z M 53.109375 63.445312 C 53.074219 63.128906 53.023438 62.992188 52.90625 62.992188 C 52.789062 62.992188 52.722656 63.109375 52.65625 63.261719 L 47.730469 73.785156 L 42.601562 63.246094 C 42.515625 63.058594 42.449219 62.992188 42.347656 62.992188 C 42.25 62.992188 42.179688 63.109375 42.164062 63.292969 L 40.957031 74.222656 C 40.890625 74.859375 40.839844 75.511719 40.289062 75.613281 C 40.035156 75.664062 39.917969 75.664062 39.785156 75.664062 C 39.699219 75.664062 39.617188 75.699219 39.617188 75.746094 C 39.617188 75.863281 39.734375 75.898438 39.902344 75.898438 C 40.355469 75.898438 41.160156 75.847656 41.308594 75.847656 C 41.445312 75.847656 42.25 75.898438 42.867188 75.898438 C 43.070312 75.898438 43.167969 75.863281 43.167969 75.746094 C 43.167969 75.699219 43.101562 75.664062 43.035156 75.664062 C 42.933594 75.664062 42.683594 75.648438 42.398438 75.582031 C 42.148438 75.53125 41.964844 75.3125 41.964844 75.0625 C 41.964844 74.777344 41.964844 74.472656 41.980469 74.207031 L 42.648438 66.429688 L 42.71875 66.429688 C 42.902344 66.882812 44.777344 70.902344 44.929688 71.207031 C 45.015625 71.375 46.457031 74.273438 46.890625 75.09375 C 47.210938 75.699219 47.292969 75.863281 47.410156 75.863281 C 47.5625 75.863281 47.613281 75.714844 47.964844 74.976562 L 52.070312 66.261719 L 52.121094 66.261719 L 52.925781 74.910156 C 52.957031 75.210938 52.941406 75.496094 52.859375 75.511719 C 52.773438 75.53125 52.738281 75.5625 52.738281 75.628906 C 52.738281 75.714844 52.824219 75.765625 53.210938 75.796875 C 53.828125 75.847656 55.640625 75.898438 56.007812 75.898438 C 56.210938 75.898438 56.359375 75.847656 56.359375 75.746094 C 56.359375 75.679688 56.308594 75.664062 56.226562 75.664062 C 56.058594 75.664062 55.621094 75.664062 55.136719 75.511719 C 54.417969 75.277344 54.300781 74.339844 54.230469 73.738281 Z M 58.304688 74.054688 C 58.003906 74.894531 57.667969 75.53125 56.898438 75.628906 C 56.761719 75.648438 56.527344 75.664062 56.410156 75.664062 C 56.328125 75.664062 56.261719 75.699219 56.261719 75.765625 C 56.261719 75.863281 56.359375 75.898438 56.578125 75.898438 C 57.367188 75.898438 58.289062 75.847656 58.472656 75.847656 C 58.65625 75.847656 59.378906 75.898438 59.78125 75.898438 C 59.929688 75.898438 60.03125 75.863281 60.03125 75.765625 C 60.03125 75.699219 59.980469 75.664062 59.863281 75.664062 L 59.695312 75.664062 C 59.410156 75.664062 59.058594 75.511719 59.058594 75.179688 C 59.058594 74.875 59.140625 74.472656 59.292969 74.054688 L 60.300781 71.089844 C 60.332031 71.003906 60.382812 70.953125 60.464844 70.953125 L 64.070312 70.953125 C 64.152344 70.953125 64.1875 70.988281 64.222656 71.054688 L 65.78125 75.179688 C 65.878906 75.445312 65.78125 75.597656 65.679688 75.628906 C 65.613281 75.648438 65.5625 75.679688 65.5625 75.746094 C 65.5625 75.847656 65.746094 75.847656 66.066406 75.863281 C 67.222656 75.898438 68.445312 75.898438 68.695312 75.898438 C 68.878906 75.898438 69.03125 75.863281 69.03125 75.765625 C 69.03125 75.679688 68.964844 75.664062 68.863281 75.664062 C 68.695312 75.664062 68.445312 75.648438 68.191406 75.5625 C 67.839844 75.460938 67.355469 75.195312 66.75 73.703125 C 65.730469 71.15625 63.097656 64.234375 62.847656 63.597656 C 62.644531 63.078125 62.578125 62.992188 62.476562 62.992188 C 62.378906 62.992188 62.308594 63.09375 62.109375 63.648438 Z M 60.652344 70.351562 C 60.601562 70.351562 60.566406 70.316406 60.601562 70.234375 L 62.074219 65.707031 C 62.160156 65.457031 62.242188 65.457031 62.328125 65.707031 L 63.917969 70.234375 C 63.9375 70.300781 63.9375 70.351562 63.851562 70.351562 Z M 71.429688 71.039062 C 71.429688 72.648438 71.429688 73.972656 71.34375 74.675781 C 71.277344 75.160156 71.191406 75.53125 70.859375 75.597656 C 70.707031 75.628906 70.507812 75.664062 70.355469 75.664062 C 70.253906 75.664062 70.222656 75.714844 70.222656 75.765625 C 70.222656 75.863281 70.304688 75.898438 70.488281 75.898438 C 70.992188 75.898438 72.046875 75.847656 72.097656 75.847656 C 72.183594 75.847656 73.238281 75.898438 74.160156 75.898438 C 74.34375 75.898438 74.429688 75.847656 74.429688 75.765625 C 74.429688 75.714844 74.394531 75.664062 74.292969 75.664062 C 74.144531 75.664062 73.773438 75.628906 73.539062 75.597656 C 73.035156 75.53125 72.9375 75.160156 72.886719 74.675781 C 72.800781 73.972656 72.800781 72.648438 72.800781 71.039062 L 72.800781 64.148438 C 72.800781 63.980469 72.835938 63.863281 72.9375 63.832031 C 73.085938 63.765625 73.371094 63.730469 73.65625 63.730469 C 74.042969 63.730469 75.066406 63.664062 75.953125 64.570312 C 76.839844 65.472656 76.890625 66.597656 76.890625 67.148438 C 76.890625 68.691406 75.617188 69.882812 73.992188 69.882812 C 73.640625 69.882812 73.539062 69.898438 73.539062 70.03125 C 73.539062 70.117188 73.640625 70.148438 73.722656 70.148438 C 73.808594 70.167969 73.992188 70.167969 74.074219 70.167969 C 76.457031 70.167969 78.199219 68.558594 78.199219 66.175781 C 78.199219 65.289062 77.730469 64.535156 77.359375 64.183594 C 77.09375 63.933594 76.339844 63.226562 74.242188 63.226562 C 73.472656 63.226562 72.5 63.277344 72.132812 63.277344 C 71.996094 63.277344 70.992188 63.226562 70.238281 63.226562 C 70.054688 63.226562 69.96875 63.261719 69.96875 63.363281 C 69.96875 63.429688 70.035156 63.460938 70.105469 63.460938 C 70.253906 63.460938 70.539062 63.480469 70.671875 63.511719 C 71.226562 63.628906 71.359375 63.898438 71.394531 64.46875 C 71.429688 65.003906 71.429688 65.472656 71.429688 68.089844 Z M 83.34375 68.089844 C 83.34375 65.472656 83.34375 65.003906 83.378906 64.46875 C 83.410156 63.882812 83.546875 63.597656 84.03125 63.511719 C 84.234375 63.480469 84.46875 63.460938 84.585938 63.460938 C 84.652344 63.460938 84.71875 63.429688 84.71875 63.363281 C 84.71875 63.261719 84.636719 63.226562 84.449219 63.226562 C 83.949219 63.226562 82.722656 63.277344 82.640625 63.277344 C 82.558594 63.277344 81.5 63.226562 80.746094 63.226562 C 80.5625 63.226562 80.476562 63.261719 80.476562 63.363281 C 80.476562 63.429688 80.546875 63.460938 80.613281 63.460938 C 80.761719 63.460938 81.046875 63.480469 81.183594 63.511719 C 81.734375 63.628906 81.871094 63.898438 81.902344 64.46875 C 81.9375 65.003906 81.9375 65.472656 81.9375 68.089844 L 81.9375 71.039062 C 81.9375 72.648438 81.9375 73.972656 81.851562 74.675781 C 81.785156 75.160156 81.703125 75.53125 81.367188 75.597656 C 81.214844 75.628906 81.015625 75.664062 80.863281 75.664062 C 80.761719 75.664062 80.730469 75.714844 80.730469 75.765625 C 80.730469 75.863281 80.8125 75.898438 80.996094 75.898438 C 81.25 75.898438 81.617188 75.882812 81.953125 75.863281 C 82.289062 75.863281 82.574219 75.847656 82.640625 75.847656 C 83.125 75.847656 83.644531 75.863281 84.351562 75.898438 C 85.054688 75.914062 85.925781 75.949219 87.132812 75.949219 C 88.019531 75.949219 88.070312 75.882812 88.1875 75.496094 C 88.324219 75.011719 88.441406 74.003906 88.441406 73.820312 C 88.441406 73.636719 88.421875 73.570312 88.339844 73.570312 C 88.238281 73.570312 88.203125 73.652344 88.1875 73.785156 C 88.136719 74.105469 87.96875 74.523438 87.753906 74.792969 C 87.351562 75.277344 86.613281 75.296875 85.722656 75.296875 C 84.417969 75.296875 83.980469 75.179688 83.714844 74.910156 C 83.410156 74.609375 83.34375 73.535156 83.34375 71.070312 Z M 91.859375 71.039062 C 91.859375 72.648438 91.859375 73.972656 91.773438 74.675781 C 91.707031 75.160156 91.625 75.53125 91.289062 75.597656 C 91.136719 75.628906 90.9375 75.664062 90.785156 75.664062 C 90.6875 75.664062 90.652344 75.714844 90.652344 75.765625 C 90.652344 75.863281 90.734375 75.898438 90.921875 75.898438 C 91.171875 75.898438 91.558594 75.863281 91.890625 75.863281 C 92.246094 75.847656 92.53125 75.847656 92.5625 75.847656 C 92.8125 75.847656 93.214844 75.863281 93.871094 75.898438 C 94.523438 75.914062 95.445312 75.949219 96.703125 75.949219 C 97.355469 75.949219 97.488281 75.949219 97.609375 75.511719 C 97.691406 75.160156 97.824219 74.023438 97.824219 73.886719 C 97.824219 73.769531 97.824219 73.636719 97.726562 73.636719 C 97.640625 73.636719 97.609375 73.703125 97.574219 73.886719 C 97.457031 74.574219 97.253906 74.910156 96.820312 75.09375 C 96.382812 75.277344 95.648438 75.277344 95.210938 75.277344 C 93.570312 75.277344 93.316406 75.0625 93.265625 73.902344 C 93.25 73.550781 93.265625 71.609375 93.265625 71.039062 L 93.265625 69.5625 C 93.265625 69.496094 93.300781 69.445312 93.382812 69.445312 C 93.667969 69.445312 95.328125 69.480469 95.78125 69.53125 C 96.433594 69.597656 96.585938 69.882812 96.652344 70.117188 C 96.71875 70.335938 96.71875 70.5 96.71875 70.667969 C 96.71875 70.753906 96.753906 70.820312 96.835938 70.820312 C 96.953125 70.820312 96.953125 70.636719 96.953125 70.5 C 96.953125 70.382812 96.988281 69.765625 97.019531 69.429688 C 97.070312 68.875 97.15625 68.589844 97.15625 68.492188 C 97.15625 68.390625 97.121094 68.355469 97.070312 68.355469 C 97.003906 68.355469 96.9375 68.441406 96.820312 68.574219 C 96.667969 68.742188 96.433594 68.773438 96.03125 68.808594 C 95.648438 68.84375 93.585938 68.84375 93.367188 68.84375 C 93.285156 68.84375 93.265625 68.792969 93.265625 68.675781 L 93.265625 64.050781 C 93.265625 63.933594 93.300781 63.882812 93.367188 63.882812 C 93.550781 63.882812 95.378906 63.898438 95.664062 63.933594 C 96.570312 64.03125 96.734375 64.234375 96.851562 64.5 C 96.9375 64.703125 96.953125 64.988281 96.953125 65.105469 C 96.953125 65.238281 96.988281 65.324219 97.089844 65.324219 C 97.15625 65.324219 97.1875 65.222656 97.207031 65.136719 C 97.238281 64.9375 97.273438 64.199219 97.289062 64.03125 C 97.339844 63.5625 97.421875 63.363281 97.421875 63.246094 C 97.421875 63.160156 97.40625 63.09375 97.355469 63.09375 C 97.273438 63.09375 97.207031 63.160156 97.121094 63.175781 C 96.988281 63.210938 96.71875 63.246094 96.402344 63.261719 C 96.015625 63.277344 92.679688 63.277344 92.5625 63.277344 L 91.875 63.246094 C 91.507812 63.226562 91.054688 63.226562 90.667969 63.226562 C 90.484375 63.226562 90.402344 63.261719 90.402344 63.363281 C 90.402344 63.429688 90.46875 63.460938 90.535156 63.460938 C 90.6875 63.460938 90.96875 63.480469 91.105469 63.511719 C 91.65625 63.628906 91.792969 63.898438 91.824219 64.46875 C 91.859375 65.003906 91.859375 65.472656 91.859375 68.089844 Z M 91.859375 71.039062 "/>
<path style=" stroke:none;fill-rule:evenodd;fill:rgb(43.137255%,43.529412%,43.921569%);fill-opacity:1;" d="M 26.9375 13.8125 L 73.0625 13.8125 L 73.0625 59.9375 L 26.9375 59.9375 Z M 66.421875 13.8125 C 66.402344 13.964844 66.386719 14.121094 66.382812 14.273438 C 66.414062 21.753906 66.382812 29.234375 66.398438 36.714844 C 66.503906 41.398438 65.234375 46.183594 62.472656 50 C 60.015625 53.367188 56.148438 55.609375 52.027344 56.160156 C 48.171875 56.640625 44.230469 55.828125 40.703125 54.273438 C 43.25 54.65625 45.867188 54.925781 48.417969 54.433594 C 50.421875 54.0625 52.398438 53.359375 54.019531 52.105469 C 55.4375 51.074219 56.472656 49.625 57.371094 48.148438 C 59.3125 44.28125 59.976562 39.875 59.859375 35.582031 C 59.859375 28.328125 59.859375 21.070312 59.859375 13.8125 Z M 47.320312 13.8125 C 47.28125 14.597656 47.292969 15.386719 47.304688 16.175781 C 47.304688 23.589844 47.304688 31.003906 47.304688 38.417969 C 47.304688 40.175781 47.625 42.007812 48.664062 43.46875 C 49.300781 44.453125 50.210938 45.289062 51.328125 45.691406 C 52.574219 46.171875 53.929688 46.011719 55.230469 45.980469 C 53.734375 46.675781 52.097656 47.1875 50.425781 47.003906 C 47.902344 46.804688 45.613281 45.257812 44.253906 43.15625 C 43.324219 41.878906 42.898438 40.332031 42.597656 38.804688 C 42.652344 33.273438 42.605469 27.738281 42.621094 22.203125 C 42.605469 19.671875 42.65625 17.140625 42.585938 14.609375 C 42.589844 14.34375 42.589844 14.078125 42.585938 13.8125 Z M 40.207031 13.8125 C 40.152344 21.632812 40.199219 29.457031 40.183594 37.28125 C 40.214844 38.679688 40.082031 40.105469 40.457031 41.472656 C 41.417969 45.113281 44.398438 48.179688 48.050781 49.148438 C 49.410156 49.527344 50.832031 49.398438 52.222656 49.410156 C 49.859375 50.753906 47.082031 51.53125 44.359375 51.152344 C 41.664062 50.8125 39.167969 49.414062 37.289062 47.480469 C 35.84375 45.929688 34.8125 44.027344 34.125 42.03125 C 33.707031 40.488281 33.570312 38.875 33.613281 37.28125 C 33.625 30.179688 33.613281 23.082031 33.617188 15.984375 C 33.628906 15.261719 33.65625 14.535156 33.582031 13.8125 Z M 40.207031 13.8125 "/>
<path style=" stroke:none;fill-rule:evenodd;fill:rgb(43.137255%,43.529412%,43.921569%);fill-opacity:1;" d="M 26.9375 86.316406 L 73.0625 86.316406 L 73.0625 79.980469 L 26.9375 79.980469 Z M 26.9375 86.316406 "/>
<path style="fill-rule:evenodd;fill:rgb(33.72549%,34.117647%,34.117647%);fill-opacity:1;stroke-width:0.5;stroke-linecap:butt;stroke-linejoin:miter;stroke:rgb(33.72549%,34.117647%,34.117647%);stroke-opacity:1;stroke-miterlimit:4;" d="M 380.04375 68.53125 C 385.3125 68.53125 389.56875 72.80625 389.56875 78.075 C 389.56875 83.34375 385.3125 87.6 380.04375 87.6 C 374.775 87.6 370.5 83.34375 370.5 78.075 C 370.5 72.80625 374.775 68.53125 380.04375 68.53125 Z M 380.04375 65.68125 C 386.86875 65.68125 392.41875 71.23125 392.41875 78.075 C 392.41875 84.9 386.86875 90.45 380.04375 90.45 C 373.2 90.45 367.66875 84.9 367.66875 78.075 C 367.66875 71.23125 373.2 65.68125 380.04375 65.68125 Z M 380.04375 65.68125 " transform="matrix(0.208333,0,0,0.208333,0,0)"/>
<path style="fill-rule:evenodd;fill:rgb(33.72549%,34.117647%,34.117647%);fill-opacity:1;stroke-width:0.216;stroke-linecap:butt;stroke-linejoin:miter;stroke:rgb(33.72549%,34.117647%,34.117647%);stroke-opacity:1;stroke-miterlimit:4;" d="M 384.28125 82.95 L 382.03125 82.95 L 381.20625 80.56875 C 381.0375 80.08125 380.8125 79.725 380.53125 79.51875 C 380.25 79.3125 379.9125 79.2 379.48125 79.2 L 377.86875 79.2 L 377.86875 82.95 L 375.80625 82.95 L 375.80625 73.2 L 380.1375 73.2 C 380.49375 73.2 380.83125 73.2 381.15 73.2375 C 381.45 73.275 381.75 73.33125 382.0125 73.40625 C 382.275 73.48125 382.51875 73.59375 382.725 73.74375 C 382.93125 73.875 383.11875 74.0625 383.26875 74.2875 C 383.4375 74.5125 383.55 74.775 383.64375 75.05625 C 383.7375 75.31875 383.775 75.6375 383.775 75.975 C 383.775 76.66875 383.5875 77.2125 383.23125 77.625 C 382.85625 78.0375 382.35 78.3375 381.7125 78.4875 C 381.9 78.58125 382.06875 78.675 382.2375 78.7875 C 382.3875 78.88125 382.51875 79.0125 382.65 79.18125 C 382.78125 79.33125 382.89375 79.5 382.9875 79.70625 C 383.1 79.9125 383.19375 80.15625 383.2875 80.41875 Z M 377.86875 77.55 L 379.93125 77.55 C 380.53125 77.55 380.98125 77.4375 381.24375 77.2125 C 381.525 76.9875 381.65625 76.63125 381.65625 76.125 C 381.65625 75.24375 381.13125 74.8125 380.0625 74.8125 L 377.86875 74.8125 Z M 377.86875 77.55 " transform="matrix(0.208333,0,0,0.208333,0,0)"/>
</g>
</svg>
